<svg width="353" height="288" viewBox="0 0 353 288" fill="none" xmlns="http://www.w3.org/2000/svg">
<g clip-path="url(#clip0_4_2354)">
<path d="M251.703 100.138H80.5536V247.189H251.703V100.138Z" fill="#DEE8F5"/>
<path opacity="0.55" d="M253.616 97.7763H76.8196V135.148H253.616V97.7763Z" fill="#C1D8ED"/>
<path d="M283.654 257.505H48.6028V272.752H283.654V257.505Z" fill="#F3F5FD"/>
<path d="M275.408 242.257H56.8488V257.505H275.408V242.257Z" fill="#F3F5FD"/>
<path d="M275.408 253.425H56.8488V257.505H275.408V253.425Z" fill="#DEE8F5"/>
<path d="M283.654 268.673H48.6028V272.752H283.654V268.673Z" fill="#DEE8F5"/>
<path d="M291.537 272.752H41.0331V288H291.537V272.752Z" fill="#F3F5FD"/>
<path d="M291.537 283.921H41.0331V288H291.537V283.921Z" fill="#DEE8F5"/>
<path d="M92.4042 111.599H73.4902V235.395H92.4042V111.599Z" fill="#F3F5FD"/>
<path d="M140.117 111.599H121.203V235.395H140.117V111.599Z" fill="#F3F5FD"/>
<path d="M258.766 111.599H239.852V235.395H258.766V111.599Z" fill="#F3F5FD"/>
<path d="M67.7948 100.138H98.1005V114.185C98.1005 114.656 97.9558 115.107 97.6983 115.44C97.4408 115.773 97.0915 115.96 96.7274 115.96H69.1679C68.8038 115.96 68.4545 115.773 68.197 115.44C67.9395 115.107 67.7948 114.656 67.7948 114.185V100.138Z" fill="#C1D8ED"/>
<path d="M115.507 100.138H145.813V114.185C145.813 114.656 145.668 115.107 145.411 115.44C145.153 115.773 144.804 115.96 144.44 115.96H116.88C116.516 115.96 116.167 115.773 115.91 115.44C115.652 115.107 115.507 114.656 115.507 114.185V100.138Z" fill="#C1D8ED"/>
<path d="M234.158 100.138H264.463V114.185C264.463 114.656 264.319 115.107 264.061 115.44C263.804 115.773 263.454 115.96 263.09 115.96H235.529C235.165 115.96 234.816 115.773 234.559 115.44C234.301 115.107 234.156 114.656 234.156 114.185V100.138H234.158Z" fill="#C1D8ED"/>
<path d="M69.1679 231.157H96.7269C97.0911 231.157 97.4403 231.344 97.6978 231.677C97.9553 232.01 98.1 232.462 98.1 232.933V242.257H67.7948V232.933C67.7948 232.462 67.9395 232.01 68.197 231.677C68.4545 231.344 68.8038 231.157 69.1679 231.157Z" fill="#C1D8ED"/>
<path d="M116.88 231.157H144.439C144.804 231.157 145.153 231.344 145.41 231.677C145.668 232.01 145.813 232.462 145.813 232.933V242.257H115.507V232.933C115.507 232.462 115.652 232.01 115.91 231.677C116.167 231.344 116.516 231.157 116.88 231.157Z" fill="#C1D8ED"/>
<path d="M235.529 231.157H263.088C263.453 231.157 263.802 231.344 264.059 231.677C264.317 232.01 264.462 232.462 264.462 232.933V242.257H234.158V232.933C234.158 232.462 234.302 232.011 234.559 231.678C234.817 231.345 235.166 231.158 235.529 231.157Z" fill="#C1D8ED"/>
<path d="M80.5444 122.752C80.5444 122.073 80.1182 121.522 79.5925 121.522C79.0668 121.522 78.6406 122.073 78.6406 122.752V224.242C78.6406 224.922 79.0668 225.473 79.5925 225.473C80.1182 225.473 80.5444 224.922 80.5444 224.242V122.752Z" fill="#C1D8ED"/>
<path d="M87.2543 122.752C87.2543 122.073 86.8281 121.522 86.3024 121.522C85.7766 121.522 85.3505 122.073 85.3505 122.752V224.242C85.3505 224.922 85.7766 225.473 86.3024 225.473C86.8281 225.473 87.2543 224.922 87.2543 224.242V122.752Z" fill="#C1D8ED"/>
<path d="M128.257 122.752C128.257 122.073 127.831 121.522 127.305 121.522C126.779 121.522 126.353 122.073 126.353 122.752V224.242C126.353 224.922 126.779 225.473 127.305 225.473C127.831 225.473 128.257 224.922 128.257 224.242V122.752Z" fill="#C1D8ED"/>
<path d="M134.967 122.752C134.967 122.073 134.541 121.522 134.015 121.522C133.49 121.522 133.063 122.073 133.063 122.752V224.242C133.063 224.922 133.49 225.473 134.015 225.473C134.541 225.473 134.967 224.922 134.967 224.242V122.752Z" fill="#C1D8ED"/>
<path d="M212.526 111.599H193.612V235.395H212.526V111.599Z" fill="#F3F5FD"/>
<path d="M187.916 100.138H218.221V114.185C218.221 114.656 218.077 115.107 217.819 115.44C217.562 115.773 217.213 115.96 216.848 115.96H189.289C188.925 115.96 188.576 115.773 188.318 115.44C188.061 115.107 187.916 114.656 187.916 114.185V100.138Z" fill="#C1D8ED"/>
<path d="M189.289 231.157H216.85C217.214 231.157 217.564 231.344 217.821 231.677C218.079 232.01 218.223 232.462 218.223 232.933V242.257H187.916V232.933C187.916 232.462 188.061 232.01 188.318 231.677C188.576 231.344 188.925 231.157 189.289 231.157Z" fill="#C1D8ED"/>
<path d="M200.665 122.752C200.665 122.073 200.239 121.522 199.714 121.522C199.188 121.522 198.762 122.073 198.762 122.752V224.242C198.762 224.922 199.188 225.473 199.714 225.473C200.239 225.473 200.665 224.922 200.665 224.242V122.752Z" fill="#C1D8ED"/>
<path d="M207.375 122.752C207.375 122.073 206.949 121.522 206.423 121.522C205.898 121.522 205.471 122.073 205.471 122.752V224.242C205.471 224.922 205.898 225.473 206.423 225.473C206.949 225.473 207.375 224.922 207.375 224.242V122.752Z" fill="#C1D8ED"/>
<path d="M246.906 122.752C246.906 122.073 246.48 121.522 245.954 121.522C245.428 121.522 245.002 122.073 245.002 122.752V224.242C245.002 224.922 245.428 225.473 245.954 225.473C246.48 225.473 246.906 224.922 246.906 224.242V122.752Z" fill="#C1D8ED"/>
<path d="M253.616 122.752C253.616 122.073 253.19 121.522 252.664 121.522C252.138 121.522 251.712 122.073 251.712 122.752V224.242C251.712 224.922 252.138 225.473 252.664 225.473C253.19 225.473 253.616 224.922 253.616 224.242V122.752Z" fill="#C1D8ED"/>
<path d="M272.731 94.6259V103.63C272.731 104.114 272.583 104.579 272.318 104.921C272.053 105.264 271.694 105.456 271.319 105.456H60.4999C60.1252 105.456 59.7659 105.264 59.501 104.921C59.2361 104.579 59.0872 104.114 59.0872 103.63V95.0127C59.0872 94.5876 59.1676 94.1689 59.3214 93.7932C59.4752 93.4174 59.6977 93.0959 59.9696 92.8568L164.992 0.45164C165.327 0.157325 165.722 -6.10352e-05 166.127 -6.10352e-05C166.532 -6.10352e-05 166.927 0.157325 167.261 0.45164L271.847 92.47C272.119 92.7089 272.342 93.0302 272.496 93.406C272.651 93.7818 272.731 94.2006 272.731 94.6259Z" fill="#DEE8F5"/>
<path d="M244.582 90.2599H87.674C87.558 90.2598 87.445 90.2116 87.3516 90.1225C87.2583 90.0333 87.1895 89.9078 87.1553 89.7644C87.1211 89.621 87.1234 89.4673 87.1617 89.3256C87.2001 89.184 87.2725 89.062 87.3684 88.9775L165.821 19.9483C165.911 19.8692 166.018 19.8269 166.127 19.8269C166.235 19.8269 166.342 19.8692 166.432 19.9483L244.888 88.9775C244.984 89.062 245.056 89.184 245.095 89.3256C245.133 89.4673 245.135 89.621 245.101 89.7644C245.067 89.9078 244.998 90.0333 244.905 90.1225C244.811 90.2116 244.698 90.2598 244.582 90.2599Z" fill="#F3F5FD"/>
<path d="M99.5923 251.318H126.115C126.47 251.318 126.811 251.5 127.063 251.825C127.314 252.15 127.456 252.591 127.456 253.051V261.812C127.455 262.271 127.314 262.712 127.063 263.037C126.811 263.362 126.47 263.545 126.115 263.545H99.5923V251.318Z" fill="#8DDBE0"/>
<path d="M66.6468 251.318H52.5872V263.545H66.6468V251.318Z" fill="#4A43EC"/>
<path d="M16.9899 251.318H52.4593V263.545H16.9899C16.6346 263.544 16.2939 263.362 16.0427 263.037C15.7915 262.712 15.6504 262.271 15.6504 261.812V253.051C15.6504 252.592 15.7915 252.151 16.0427 251.826C16.2938 251.501 16.6345 251.318 16.9899 251.318Z" fill="#8DDBE0"/>
<path opacity="0.15" d="M99.5923 251.318H126.115C126.47 251.318 126.811 251.5 127.063 251.825C127.314 252.15 127.456 252.591 127.456 253.051V261.812C127.455 262.271 127.314 262.712 127.063 263.037C126.811 263.362 126.47 263.545 126.115 263.545H99.5923V251.318Z" fill="#0F1011"/>
<path d="M66.6468 251.318H99.8156C100.171 251.318 100.512 251.5 100.764 251.825C101.015 252.15 101.156 252.591 101.156 253.051V261.812C101.156 262.271 101.015 262.712 100.764 263.037C100.512 263.362 100.171 263.545 99.8156 263.545H66.6468V251.318Z" fill="#8DDBE0"/>
<path d="M83.9428 263.545H110.465C110.821 263.545 111.162 263.727 111.413 264.052C111.665 264.377 111.806 264.818 111.806 265.278V274.039C111.806 274.499 111.665 274.94 111.413 275.265C111.162 275.59 110.821 275.772 110.465 275.772H83.9428V263.545Z" fill="#8DDBE0"/>
<path d="M50.9978 263.545H36.9382V275.772H50.9978V263.545Z" fill="#4A43EC"/>
<path d="M1.34087 263.545H36.8102V275.772H1.34087C0.98525 275.772 0.644194 275.59 0.392732 275.265C0.14127 274.94 0 274.499 0 274.039L0 265.278C0 264.818 0.14127 264.377 0.392732 264.052C0.644194 263.727 0.98525 263.545 1.34087 263.545Z" fill="#8DDBE0"/>
<path opacity="0.15" d="M83.9428 263.545H110.465C110.821 263.545 111.162 263.727 111.413 264.052C111.665 264.377 111.806 264.818 111.806 265.278V274.039C111.806 274.499 111.665 274.94 111.413 275.265C111.162 275.59 110.821 275.772 110.465 275.772H83.9428V263.545Z" fill="#0F1011"/>
<path d="M50.9973 263.545H84.1661C84.5217 263.545 84.8627 263.727 85.1142 264.052C85.3657 264.377 85.5069 264.818 85.5069 265.278V274.039C85.5069 274.499 85.3657 274.94 85.1142 275.265C84.8627 275.59 84.5217 275.772 84.1661 275.772H50.9973V263.545Z" fill="#8DDBE0"/>
<path d="M89.2396 275.772H115.762C116.118 275.772 116.459 275.955 116.71 276.28C116.962 276.605 117.103 277.046 117.103 277.506V286.267C117.103 286.726 116.962 287.167 116.71 287.492C116.459 287.817 116.118 288 115.762 288H89.2396V275.772Z" fill="#8DDBE0"/>
<path opacity="0.15" d="M89.2396 275.772H115.762C116.118 275.772 116.459 275.955 116.71 276.28C116.962 276.605 117.103 277.046 117.103 277.506V286.267C117.103 286.726 116.962 287.167 116.71 287.492C116.459 287.817 116.118 288 115.762 288H89.2396V275.772Z" fill="#0F1011"/>
<path d="M56.2945 275.772H42.2349V288H56.2945V275.772Z" fill="#4A43EC"/>
<path d="M6.63762 275.772H42.107V288H6.63762C6.282 288 5.94095 287.817 5.68949 287.492C5.43802 287.167 5.29675 286.726 5.29675 286.267V277.506C5.29675 277.046 5.43802 276.605 5.68949 276.28C5.94095 275.955 6.282 275.772 6.63762 275.772Z" fill="#8DDBE0"/>
<path d="M56.2954 275.772H89.4642C89.8198 275.772 90.1609 275.955 90.4123 276.28C90.6638 276.605 90.805 277.046 90.805 277.506V286.267C90.805 286.726 90.6638 287.167 90.4123 287.492C90.1609 287.817 89.8198 288 89.4642 288H56.2954V275.772Z" fill="#8DDBE0"/>
<path d="M59.7548 181.989C59.3703 181.507 58.8432 181.222 58.2852 181.194H42.256C41.698 181.221 41.171 181.506 40.7868 181.989C34.0364 190.334 27.8706 199.323 22.3512 208.865C15.6718 220.633 16.7405 231.607 25.157 241.784C31.8364 249.895 40.6533 251.008 50.2716 251.008C59.8898 251.008 68.7067 249.895 75.3861 241.784C83.8026 231.608 84.8713 220.633 78.1914 208.865C72.6341 199.357 66.4704 190.371 59.7548 181.989Z" fill="#4A43EC"/>
<path d="M73.783 157.34C71.4375 154.212 67.511 156.968 63.6224 160.263C62.3793 161.315 60.8423 161.753 59.3339 161.485C57.8255 161.216 56.463 160.263 55.5323 158.825C53.8367 156.218 51.9862 154 50.2716 154C48.6364 154 46.7724 156.214 45.0563 158.82C44.1055 160.252 42.7214 161.184 41.2006 161.416C39.6797 161.649 38.1429 161.163 36.9192 160.063C33.1541 156.683 29.3485 153.819 27.0271 157.024C20.6406 167.855 39.3172 183.914 41.0537 185.664C41.4537 185.982 59.2219 185.982 59.4894 185.664C61.226 184.071 80.7498 166.832 73.783 157.34Z" fill="#4A43EC"/>
<path d="M62.0273 186.124H38.5159C38.2527 186.124 37.9921 186.062 37.749 185.943C37.5058 185.823 37.2849 185.647 37.0988 185.425C36.9127 185.204 36.7651 184.941 36.6644 184.651C36.5637 184.362 36.5118 184.052 36.5118 183.738C36.5118 183.425 36.5637 183.115 36.6644 182.826C36.7651 182.536 36.9127 182.273 37.0988 182.052C37.2849 181.83 37.5058 181.654 37.749 181.534C37.9921 181.415 38.2527 181.353 38.5159 181.353H62.0273C62.5547 181.368 63.057 181.625 63.43 182.069C63.8031 182.513 64.0184 183.111 64.0313 183.738C64.0363 184.053 63.9878 184.366 63.8889 184.658C63.7899 184.95 63.6425 185.216 63.4554 185.439C63.2683 185.661 63.0454 185.837 62.8 185.955C62.5546 186.072 62.2918 186.13 62.0273 186.124Z" fill="#262626"/>
<path d="M48.7464 237.363V232.647C47.4871 232.46 46.2546 232.071 45.0823 231.492C43.8657 230.927 42.7453 230.105 41.7751 229.064L44.3085 224.396C45.1892 225.221 46.1541 225.91 47.1803 226.447C48.0631 226.896 49.013 227.129 49.9731 227.131C51.0822 227.131 51.8942 226.863 52.4091 226.329C52.6811 226.013 52.8914 225.629 53.0249 225.206C53.1583 224.782 53.2118 224.328 53.1814 223.877C53.1859 223.485 53.1192 223.097 52.9859 222.739C52.8526 222.381 52.6558 222.061 52.4091 221.802C51.8173 221.172 51.1659 220.626 50.468 220.175C49.6889 219.657 48.8504 219.138 47.9526 218.62C47.0614 218.106 46.2183 217.482 45.4372 216.757C44.6703 216.05 44.0135 215.188 43.4967 214.211C42.9577 213.128 42.6897 211.884 42.7244 210.627C42.658 208.534 43.2275 206.484 44.3285 204.851C45.4639 203.281 47.0275 202.237 48.7449 201.903V197.046H52.587V201.807C53.7627 201.989 54.8948 202.455 55.9142 203.176C56.8635 203.866 57.7296 204.707 58.4891 205.675L55.5583 209.636C54.9442 208.935 54.2509 208.34 53.4983 207.868C52.7949 207.463 52.0214 207.261 51.2403 207.278C50.4681 207.216 49.7008 207.465 49.0619 207.986C48.7942 208.275 48.587 208.635 48.4566 209.036C48.3261 209.438 48.2761 209.87 48.3105 210.298C48.3086 210.665 48.3772 211.028 48.511 211.359C48.6449 211.69 48.8404 211.98 49.0828 212.208C49.6797 212.791 50.331 213.29 51.0239 213.695C51.8027 214.167 52.6412 214.654 53.5393 215.157C54.4325 215.657 55.276 216.274 56.0542 216.996C56.8319 217.718 57.4903 218.606 57.9957 219.615C58.5392 220.773 58.8063 222.086 58.7681 223.411C58.8139 225.503 58.2699 227.553 57.2229 229.234C56.1932 230.854 54.6484 231.931 52.5885 232.464V237.368L48.7464 237.363Z" fill="#F1F1F1"/>
<path d="M248.04 205.706C248.04 205.706 236.429 195.982 232.296 199.809C228.555 203.27 232.887 217.083 232.887 217.083C232.887 217.083 242.87 218.099 248.04 205.706Z" fill="#DEE8F5"/>
<path d="M324.621 237.368C324.621 261.872 306.776 281.736 278.71 281.736C250.645 281.736 227.894 261.872 227.894 237.368C227.894 212.864 250.645 193 278.71 193C306.776 193 324.621 212.864 324.621 237.368Z" fill="#C1D8ED"/>
<path d="M257.358 262.832H254.084C253.808 262.877 253.528 262.877 253.252 262.832H249.978C249.129 262.832 248.314 263.213 247.714 263.891C247.113 264.57 246.776 265.49 246.776 266.449V284.599C246.776 285.05 246.854 285.498 247.007 285.915C247.16 286.332 247.385 286.711 247.667 287.031C247.95 287.35 248.286 287.604 248.655 287.777C249.025 287.949 249.421 288.038 249.82 288.038H253.409C253.497 288.038 253.583 288.032 253.668 288.023C253.753 288.032 253.839 288.038 253.927 288.038H257.515C258.323 288.038 259.097 287.676 259.669 287.031C260.24 286.386 260.56 285.511 260.56 284.599V266.449C260.56 265.49 260.223 264.57 259.622 263.891C259.022 263.213 258.207 262.832 257.358 262.832Z" fill="#C1D8ED"/>
<path d="M300.804 262.832H297.53C297.254 262.877 296.973 262.877 296.697 262.832H293.424C292.574 262.832 291.76 263.213 291.159 263.891C290.559 264.57 290.221 265.49 290.221 266.449V284.599C290.221 285.511 290.542 286.386 291.113 287.031C291.684 287.676 292.459 288.038 293.266 288.038H296.855C296.942 288.038 297.028 288.032 297.114 288.023C297.199 288.032 297.285 288.038 297.372 288.038H300.961C301.769 288.038 302.543 287.676 303.114 287.031C303.685 286.386 304.006 285.511 304.006 284.599V266.449C304.006 265.49 303.669 264.57 303.068 263.891C302.467 263.213 301.653 262.832 300.804 262.832Z" fill="#C1D8ED"/>
<path d="M237.24 222.909C238.156 222.909 238.899 222.07 238.899 221.035C238.899 220 238.156 219.16 237.24 219.16C236.323 219.16 235.58 220 235.58 221.035C235.58 222.07 236.323 222.909 237.24 222.909Z" fill="#111314"/>
<path d="M329.561 244.894C329.173 244.895 328.785 244.856 328.402 244.778C327.356 244.566 326.366 244.087 325.507 243.379C324.648 242.67 323.943 241.751 323.446 240.689C322.966 239.616 322.715 238.43 322.712 237.228C322.71 236.025 322.956 234.839 323.431 233.763C323.948 232.452 324.71 231.283 325.666 230.336C323.325 229.735 320.922 229.5 318.524 229.639C318.027 229.681 317.535 229.498 317.157 229.13C316.779 228.763 316.545 228.24 316.508 227.679C316.471 227.117 316.633 226.561 316.958 226.134C317.284 225.707 317.746 225.443 318.244 225.401C318.585 225.372 325.754 224.811 330.84 228.098C334.749 227.833 338.479 229.91 338.669 230.018C338.889 230.143 339.086 230.316 339.248 230.527C339.409 230.738 339.533 230.983 339.611 231.248C339.688 231.512 339.719 231.792 339.702 232.07C339.684 232.348 339.618 232.62 339.507 232.869C339.396 233.119 339.243 233.341 339.056 233.524C338.87 233.706 338.653 233.846 338.419 233.933C337.945 234.111 337.429 234.069 336.983 233.816C336.336 233.469 335.665 233.181 334.977 232.954C335.51 234.245 335.813 235.642 335.87 237.066C335.958 238.19 335.815 239.322 335.452 240.374C335.089 241.426 334.517 242.369 333.779 243.131C332.609 244.277 331.11 244.904 329.561 244.894ZM329.947 232.521C329.789 232.565 329.631 232.617 329.482 232.678C328.889 232.92 328.349 233.3 327.895 233.793C327.441 234.286 327.084 234.882 326.848 235.541C326.613 236.028 326.485 236.57 326.473 237.124C326.462 237.678 326.568 238.226 326.782 238.725C327.018 239.207 327.345 239.625 327.74 239.949C328.135 240.272 328.589 240.493 329.069 240.596C329.458 240.681 329.859 240.667 330.242 240.553C330.626 240.44 330.982 240.231 331.284 239.942C331.594 239.602 331.829 239.187 331.973 238.727C332.116 238.268 332.164 237.777 332.111 237.294C332.092 236.432 331.913 235.585 331.586 234.807C331.259 234.029 330.792 233.336 330.214 232.774C330.128 232.688 330.039 232.604 329.947 232.521Z" fill="#C1D8ED"/>
<path d="M325.141 236.777C324.825 236.777 324.515 236.687 324.238 236.516C323.962 236.344 323.728 236.097 323.558 235.797C323.388 235.497 323.287 235.153 323.266 234.798C323.244 234.442 323.302 234.087 323.434 233.763C323.878 232.582 324.536 231.518 325.365 230.64C326.194 229.762 327.175 229.089 328.247 228.664C332.923 226.812 338.436 229.884 338.669 230.015C338.889 230.14 339.086 230.313 339.248 230.524C339.409 230.735 339.533 230.98 339.611 231.245C339.688 231.509 339.719 231.789 339.702 232.067C339.684 232.345 339.618 232.617 339.507 232.866C339.396 233.116 339.243 233.338 339.056 233.521C338.87 233.703 338.653 233.843 338.419 233.931C337.945 234.108 337.429 234.066 336.983 233.814C335.789 233.145 332.106 231.632 329.482 232.678C328.89 232.92 328.349 233.3 327.896 233.793C327.442 234.286 327.085 234.882 326.848 235.541C326.698 235.91 326.457 236.222 326.154 236.441C325.852 236.66 325.5 236.777 325.141 236.777Z" fill="#DEE8F5"/>
<path d="M245.572 210.328C245.158 209.877 244.898 209.276 244.838 208.631C244.778 207.986 244.922 207.337 245.244 206.799C247.453 203.132 252.514 195.605 255.998 197.145C259.187 198.554 259.949 207.578 260.135 211.645C260.177 212.223 260.043 212.801 259.756 213.282C259.468 213.763 259.045 214.12 258.555 214.293C255.995 215.079 250.798 215.674 245.572 210.328Z" fill="#DEE8F5"/>
<path d="M218.75 229.944L256.087 230.314V258.153L222.022 257.983" fill="#C1D8ED"/>
<path d="M222.333 258.01C225.406 257.484 227.053 250.77 226.013 243.013C224.972 235.257 221.637 229.395 218.564 229.921C215.491 230.448 213.844 237.162 214.884 244.918C215.925 252.675 219.26 258.536 222.333 258.01Z" fill="#DEE8F5"/>
<path d="M290.963 196.747H265.973C264.973 196.747 264.162 197.663 264.162 198.793V198.793C264.162 199.923 264.973 200.839 265.973 200.839H290.963C291.963 200.839 292.774 199.923 292.774 198.793V198.793C292.774 197.663 291.963 196.747 290.963 196.747Z" fill="#E9EFF4"/>
<path d="M292.618 199.621C292.476 199.984 292.244 200.292 291.95 200.508C291.656 200.724 291.312 200.839 290.961 200.839H265.973C265.622 200.839 265.278 200.724 264.985 200.508C264.691 200.291 264.459 199.982 264.318 199.62C264.407 199.387 264.534 199.177 264.694 198.999C264.861 198.808 265.06 198.657 265.28 198.554C265.499 198.45 265.735 198.398 265.973 198.399H290.963C291.314 198.399 291.658 198.515 291.952 198.732C292.246 198.949 292.477 199.258 292.618 199.621Z" fill="#0F1011"/>
<path d="M301.31 183.456C310.201 183.456 317.409 174.138 317.409 162.644C317.409 151.149 310.201 141.831 301.31 141.831C292.419 141.831 285.211 151.149 285.211 162.644C285.211 174.138 292.419 183.456 301.31 183.456Z" fill="#4A43EC"/>
<g opacity="0.29">
<path d="M301.31 176.136C307.074 176.136 311.746 170.095 311.746 162.644C311.746 155.192 307.074 149.151 301.31 149.151C295.546 149.151 290.873 155.192 290.873 162.644C290.873 170.095 295.546 176.136 301.31 176.136Z" fill="white"/>
</g>
<path d="M297.894 167.462L298.868 165.511C299.467 166.201 300.23 166.608 301.031 166.665C301.891 166.665 302.27 166.204 302.27 165.311C302.27 163.292 298.263 163.328 298.263 159.787C298.263 157.51 299.483 156.06 301.406 156.06C301.952 156.05 302.494 156.194 302.993 156.482C303.492 156.769 303.937 157.194 304.296 157.726L303.179 159.38C302.969 159.08 302.714 158.839 302.43 158.669C302.146 158.499 301.839 158.404 301.526 158.389C300.796 158.389 300.399 158.77 300.399 159.651C300.399 161.523 304.406 161.36 304.406 165.111C304.406 167.364 303.253 168.995 301.031 168.995C299.881 168.961 298.774 168.42 297.894 167.462ZM300.564 154.137H302.045V156.964H300.564V154.137ZM300.564 167.815H302.045V170.916H300.564V167.815Z" fill="white"/>
<path d="M311.994 131.286C318.969 131.286 324.624 123.976 324.624 114.959C324.624 105.941 318.969 98.6314 311.994 98.6314C305.019 98.6314 299.365 105.941 299.365 114.959C299.365 123.976 305.019 131.286 311.994 131.286Z" fill="#4A43EC"/>
<g opacity="0.29">
<path d="M311.994 125.543C316.516 125.543 320.181 120.804 320.181 114.959C320.181 109.113 316.516 104.375 311.994 104.375C307.473 104.375 303.807 109.113 303.807 114.959C303.807 120.804 307.473 125.543 311.994 125.543Z" fill="white"/>
</g>
<path d="M309.314 118.74L310.078 117.209C310.548 117.75 311.147 118.069 311.776 118.114C312.451 118.114 312.748 117.752 312.748 117.052C312.748 115.467 309.604 115.496 309.604 112.718C309.604 110.932 310.561 109.795 312.07 109.795C312.499 109.786 312.923 109.899 313.315 110.124C313.706 110.35 314.055 110.683 314.337 111.1L313.462 112.397C313.297 112.163 313.097 111.974 312.874 111.841C312.652 111.709 312.411 111.635 312.165 111.624C311.593 111.624 311.282 111.921 311.282 112.614C311.282 114.082 314.425 113.954 314.425 116.899C314.425 118.666 313.52 119.945 311.777 119.945C310.874 119.918 310.005 119.493 309.314 118.74ZM311.409 108.285H312.57V110.503H311.409V108.285ZM311.409 119.016H312.57V121.449H311.409V119.016Z" fill="white"/>
</g>
<defs>
<clipPath id="clip0_4_2354">
<rect width="353" height="288" fill="white"/>
</clipPath>
</defs>
</svg>
